<svg fill="none" height="20" viewBox="0 0 32 32" width="20" xmlns="http://www.w3.org/2000/svg"><g fill="#212121"><path d="m24.5 11.25c0 1.7949-1.4551 3.25-3.25 3.25s-3.25-1.4551-3.25-3.25c0-1.79494 1.4551-3.25001 3.25-3.25001s3.25 1.45507 3.25 3.25001z"/><path d="m30.5771 7.00652c-.0125.03337-.0235.06188-.0327.08514l-.0108.03846c-.0177.06202-.0437.15177-.0782.26654-.0689.2295-.1716.55936-.3087.96801-.2741.81661-.6869 1.95153-1.2441 3.23113-1.1063 2.5404-2.8156 5.7313-5.1955 8.1112-2.2977 2.2977-4.0301 3.5909-5.7134 4.5122-.168.0919-.3357.1801-.5033.2653l-1.6019 4.3518c-.2521.6849-1.1294.8778-1.6455.3616l-2.5032-2.5031c-.0032.0033-.0064.0066-.0096.0099-.0042.0043-.0084.0086-.0127.0128-.332.332-.781.4759-1.2143.4315-.0077.0264-.0151.0508-.0222.0729-.0124.0392-.0236.0716-.0327.0968l-.0066.0183c-.47862 1.4095-1.67315 2.3084-2.67136 2.7953-.51478.2511-1.0332.4212-1.4763.5019-.21841.0398-.45154.064-.67397.0515-.15743-.0089-.57552-.045-.89816-.3677-.0275-.0275-.05347-.056-.07788-.0856-.29954.133-.70017.2759-1.08502.3684-.23087.0556-.50351.1048-.76941.1072-.20107.0019-.69726-.014-1.07326-.39-.27517-.2752-.40495-.6345-.47462-.8924-.07798-.2887-.12239-.6137-.14196-.9467-.03927-.6681.016-1.466.17967-2.2645.16327-.7965.44381-1.6396.88466-2.3738.44083-.7342 1.07649-1.4139 1.96451-1.7691.00128-.0005.00329-.0013.00329-.0013l.00423-.0017.01126-.0044.0335-.0126c.02709-.0101.06368-.0232.1089-.0385.09028-.0306.21593-.0701.36999-.111.26065-.069.61158-.144 1.01632-.1832.06689-.2411.19509-.4687.38459-.6582.00752-.0075.0151-.0149.02274-.0222l-.76378-.7638-.00963-.0088-2.20453-2.2054c-.51613-.5161-.32331-1.3934.36167-1.6455l3.89385-1.4333c.05573-.1175.11365-.2356.17407-.3544.8566-1.6847 2.17094-3.4337 4.78453-5.86019 2.6641-2.47332 5.8545-4.26888 8.3514-5.44118 1.2534-.58851 2.3437-1.02532 3.123-1.31578.3898-.14531.7025-.25424.9195-.32741.1085-.03659.1932-.06425.2518-.08308l.0679-.02161.0013-.00042.0127-.00456c.025-.00884.0588-.02043.1006-.03397.0833-.02705.1994-.06217.3416-.09885.2824-.07284.6791-.15466 1.1361-.18853.8906-.06602 2.1625.04152 3.2018.94244 1.118.96911 1.2104 2.33901 1.1155 3.25631-.0492.4768-.1539.89666-.2442 1.19448-.0456.1504-.0887.2735-.1215.36167zm-7.3062-2.64206c-.5247.21672-1.1152.47376-1.7499.77175-2.4007 1.12717-5.3873 2.81882-7.8406 5.09649-2.5039 2.3246-3.6455 3.8908-4.36255 5.301-.36363.7151-.62959 1.4126-.91027 2.1978-.05264.1473-.10595.2981-.16056.4527-.07549.2136-.15347.4342-.23563.6623l5.57011-2.0504c1.2005-.4419 2.3677.7253 1.9258 1.9258l-1.9417 5.2751c.0333-.0131.0665-.0262.0996-.0392 1.2448-.4895 2.2746-.8945 3.3684-1.4931 1.4743-.8068 3.0571-1.9697 5.2593-4.1719 2.12-2.1199 3.7089-5.045 4.776-7.4955.2911-.6686.5409-1.29587.7499-1.85375zm-14.62179 21.40594-2.06015-2.0601c-.19115-.0214-.38505-.0237-.57728-.0121-.33095.02-.62658.0807-.83987.1372-.10548.0279-.18774.054-.24047.0719-.02628.0089-.04498.0156-.05529.0195l-.00816.003c-.36064.1454-.69671.4533-.98914.9403-.29337.4886-.5083 1.1031-.64006 1.7459-.13135.6409-.17068 1.264-.14238 1.7455.00632.1076.01575.2033.0271.2869.31029-.0778.63691-.205.79774-.2854.0776-.0388.16163-.0823.24683-.1263l.00094-.0005c.19551-.101.39735-.2053.5415-.2642.11513-.0471.32741-.1259.58155-.1255.31694.0004.61594.122.84416.3502.10667.1067.18534.2272.23938.3522.16046-.0545.33612-.1255.518-.2142.76721-.3742 1.42454-.9512 1.65779-1.651l.00949-.0285.00723-.018.00192-.0056.00475-.0145c.00837-.0264.02211-.0735.03621-.1377.02849-.1298.05651-.3206.04924-.5469-.00166-.0518-.00515-.106-.01103-.1621zm-2.9163 2.9184c-.0232-.0013-.01744-.0035.0083.0002z"/></g></svg>